<?xml version="1.0" encoding="utf-8"?>
<!-- Generator: Adobe Illustrator 15.1.0, SVG Export Plug-In . SVG Version: 6.00 Build 0)  -->
<!DOCTYPE svg PUBLIC "-//W3C//DTD SVG 1.1//EN" "http://www.w3.org/Graphics/SVG/1.1/DTD/svg11.dtd">
<svg version="1.1" id="Layer_1" xmlns="http://www.w3.org/2000/svg" xmlns:xlink="http://www.w3.org/1999/xlink" x="0px" y="0px"
	 width="574.666px" height="574.165px" viewBox="0 -41.083 574.666 574.165" enable-background="new 0 -41.083 574.666 574.165"
	 xml:space="preserve">
<path fill="#FFFFFF" d="M332.069,155.915l46.285-46.285c-63.521-42.387-150.387-35.581-206.4,20.434
	c-63.773,63.772-63.775,167.538-0.002,231.311c63.783,63.783,167.547,63.781,231.319,0.009
	c26.806-26.806,43.554-62.306,47.157-99.958l60.723,5.811c-4.951,51.727-27.944,100.479-64.746,137.281
	c-42.413,42.413-98.806,65.773-158.787,65.772c-59.981,0.001-116.375-23.359-158.797-65.782
	c-42.416-42.414-65.773-98.807-65.773-158.789c0-59.982,23.358-116.375,65.771-158.789c42.414-42.414,98.807-65.772,158.789-65.772
	c49.156,0,95.896,15.699,134.512,44.705l45.713-45.713l22.638,158.402L332.069,155.915z"/>
</svg>
